<svg width="23" height="23" viewBox="0 0 23 23" fill="none" xmlns="http://www.w3.org/2000/svg">
<path d="M9.94177 3.32861H12.397C12.8403 3.32861 13.2824 3.37322 13.7168 3.46177L14.2393 3.59493L14.3536 3.63375C14.5384 3.69656 14.7186 3.77259 14.8925 3.86124L15.1538 3.9944L15.332 4.08521C15.387 4.11326 15.4371 4.15004 15.4804 4.19414C15.5236 4.23823 15.5738 4.27502 15.6288 4.30307L15.6763 4.32729C15.7628 4.37139 15.8416 4.42922 15.9096 4.49854L15.9376 4.52703L16.0682 4.66019L16.0962 4.68868C16.1642 4.758 16.243 4.81583 16.3295 4.85992C16.416 4.90402 16.4948 4.96185 16.5628 5.03117L16.5908 5.05966L16.6175 5.08695C16.6863 5.15707 16.7435 5.23777 16.7867 5.32597C16.83 5.41418 16.8871 5.49488 16.9559 5.565L16.9827 5.59229L17.1133 5.72545L17.1401 5.75273C17.2089 5.82286 17.266 5.90356 17.3093 5.99176L17.3335 6.04118C17.3607 6.09665 17.3966 6.1474 17.4399 6.1915C17.4832 6.2356 17.5191 6.28635 17.5463 6.34181L17.6359 6.52439L17.7254 6.70697C17.7526 6.76244 17.7886 6.81318 17.8318 6.85729C17.8751 6.90139 17.911 6.95213 17.9382 7.0076L18.0278 7.19018L18.1173 7.37276C18.1445 7.42822 18.1805 7.47897 18.2237 7.52307C18.267 7.56717 18.3029 7.61792 18.3301 7.67339L18.4197 7.85597L18.5503 8.12228L18.681 8.3886L18.8116 8.65491L18.9422 8.92123L19.0729 9.3207L19.2035 9.72017C19.29 9.98482 19.3341 10.2615 19.3341 10.5399V11.8299C19.3341 12.1083 19.29 12.385 19.2035 12.6496L19.0729 13.0491L18.9422 13.4486L18.8116 13.7149L18.681 13.9812L18.5503 14.2475L18.4608 14.4301C18.4336 14.4856 18.3976 14.5363 18.3544 14.5804C18.3111 14.6245 18.2752 14.6753 18.248 14.7307L18.1584 14.9133L18.0689 15.0959C18.0416 15.1514 18.0057 15.2021 17.9625 15.2462C17.9192 15.2903 17.8833 15.3411 17.8561 15.3965L17.7665 15.5791L17.6359 15.8454L17.5874 15.9443C17.533 16.0552 17.4611 16.1567 17.3746 16.2449L17.3478 16.2722C17.279 16.3423 17.2219 16.423 17.1786 16.5112C17.1354 16.5994 17.0783 16.6801 17.0095 16.7502L16.9827 16.7775L16.9559 16.8048C16.8871 16.8749 16.83 16.9556 16.7867 17.0438C16.7435 17.132 16.6863 17.2127 16.6175 17.2829L16.5908 17.3101L16.5628 17.3386C16.4948 17.408 16.416 17.4658 16.3295 17.5099C16.243 17.554 16.1642 17.6118 16.0962 17.6811L16.0682 17.7096L15.9376 17.8428L15.9096 17.8713C15.8416 17.9406 15.7628 17.9984 15.6763 18.0425L15.6288 18.0667C15.5738 18.0948 15.5236 18.1316 15.4804 18.1757C15.4371 18.2198 15.387 18.2565 15.332 18.2846L15.1538 18.3754L14.8925 18.5086C14.7186 18.5972 14.5384 18.6732 14.3536 18.7361L14.2393 18.7749L13.7168 18.908C13.2824 18.9966 12.8403 19.0412 12.397 19.0412H10.0724C9.62912 19.0412 9.18696 18.9966 8.75261 18.908L8.23006 18.7749L8.11581 18.7361C7.93095 18.6732 7.75084 18.5972 7.57688 18.5086L7.31561 18.3754L7.13744 18.2846C7.0824 18.2565 7.03228 18.2198 6.98902 18.1757C6.94576 18.1316 6.89564 18.0948 6.8406 18.0667L6.74553 18.0183C6.69049 17.9902 6.64037 17.9534 6.59711 17.9094C6.55385 17.8653 6.50373 17.8285 6.44869 17.8004L6.40116 17.7762C6.31464 17.7321 6.23584 17.6743 6.16784 17.605L6.13989 17.5765L6.00925 17.4433L5.87861 17.3101L5.74798 17.177L5.61734 17.0438L5.4867 16.9107L5.45994 16.8834C5.39114 16.8133 5.33402 16.7326 5.29075 16.6444L5.26651 16.5949C5.2393 16.5395 5.20338 16.4887 5.16011 16.4446C5.11685 16.4005 5.08093 16.3498 5.05372 16.2943L5.00524 16.1955C4.97803 16.14 4.94211 16.0892 4.89884 16.0451C4.85558 16.001 4.81966 15.9503 4.79245 15.8948L4.70289 15.7123L4.57225 15.4459L4.48269 15.2634C4.45548 15.2079 4.41956 15.1571 4.3763 15.113C4.33303 15.0689 4.29711 15.0182 4.2699 14.9627L4.18034 14.7802L4.09078 14.5976C4.06357 14.5421 4.02765 14.4914 3.98439 14.4473C3.94112 14.4032 3.9052 14.3524 3.87799 14.2969L3.78843 14.1144L3.6578 13.8481L3.52716 13.5817L3.39653 13.3154L3.26589 12.9159C3.17911 12.5621 3.13525 12.1992 3.13525 11.8349V10.2759C3.13525 10.0836 3.1584 9.89213 3.20418 9.70545C3.2452 9.53821 3.30414 9.37588 3.37998 9.22128L3.39653 9.18754L3.52716 8.78807L3.6578 8.52175L3.78843 8.25544L3.87799 8.07286C3.9052 8.01739 3.94112 7.96665 3.98439 7.92254C4.02765 7.87844 4.06357 7.82769 4.09078 7.77223L4.18034 7.58965L4.2699 7.40707C4.29711 7.35161 4.33303 7.30086 4.3763 7.25676C4.41956 7.21266 4.45548 7.16191 4.48269 7.10644L4.57225 6.92386L4.66181 6.74129C4.68902 6.68582 4.72494 6.63507 4.76821 6.59097C4.81147 6.54687 4.84739 6.49612 4.8746 6.44065L4.96416 6.25808L5.05372 6.0755C5.08093 6.02003 5.11685 5.96928 5.16011 5.92518C5.20338 5.88108 5.2393 5.83033 5.26651 5.77487L5.29075 5.72545C5.33402 5.63725 5.39114 5.55655 5.45994 5.48642L5.4867 5.45913L5.61734 5.32597L5.74798 5.19282L5.87861 5.05966L6.00925 4.9265L6.13989 4.79334L6.16784 4.76485C6.23584 4.69553 6.31464 4.6377 6.40116 4.59361C6.48768 4.54951 6.56647 4.49168 6.63448 4.42237L6.66243 4.39387C6.74895 4.30568 6.84919 4.23211 6.95926 4.17601L7.05434 4.12756L7.31561 3.9944L7.57688 3.86124C7.75084 3.77259 7.93095 3.69656 8.11581 3.63375L8.23006 3.59493L8.62197 3.46177C9.05632 3.37322 9.49848 3.32861 9.94177 3.32861Z" fill="url(#paint0_linear_569_3235)"/>
<path d="M6.95197 11.1852C6.95197 11.1705 6.94964 11.2747 6.95487 11.4019C6.96022 11.5323 6.97341 11.7063 7.00443 11.9096C7.0658 12.3117 7.2007 12.8527 7.50279 13.401C7.80929 13.9572 8.28548 14.515 9.00749 14.9275C9.72389 15.3368 10.6268 15.5716 11.7434 15.5735C12.4732 15.5911 13.0919 15.3359 13.6031 15.0424C13.9679 14.8329 14.348 14.5588 14.6893 14.3126C14.802 14.2314 14.9105 14.1532 15.0128 14.0813C15.8959 13.4611 16.7497 12.9851 17.9648 13.0606C18.5783 13.0987 19.4825 13.3666 20.2297 13.7212C20.5427 13.8697 20.7858 14.0137 20.9467 14.1324C20.3939 16.4053 19.245 18.1601 17.6753 19.3673C16.0187 20.6412 13.8295 21.3536 11.2347 21.3536C5.86766 21.3536 1.01684 16.6416 1.01684 11.1852C1.01684 5.72885 5.86766 1.01684 11.2347 1.01684C16.2636 1.01684 20.1231 4.19025 20.9807 8.4778C20.865 8.5652 20.6667 8.67905 20.3703 8.7997C19.6765 9.08211 18.7081 9.2969 17.8111 9.37309C16.6365 9.47286 15.8714 8.99805 14.9878 8.33939C14.9141 8.28446 14.8375 8.22601 14.7578 8.16522C13.9721 7.56602 12.8901 6.74082 11.4395 6.8488C10.3378 6.88713 9.45738 7.1351 8.76863 7.54804C8.06866 7.96771 7.62256 8.52453 7.34947 9.08232C6.82806 10.1473 6.95197 11.2447 6.95197 11.1852Z" fill="url(#paint1_linear_569_3235)" stroke="#40959D" stroke-width="2.03368"/>
<path d="M18.9422 13.0493C16.1989 11.984 13.6549 14.8789 11.7572 14.8229C7.83814 14.8229 7.96877 11.2898 7.96877 11.1852C7.96877 11.0725 7.57686 7.72306 11.4959 7.59794C13.7872 7.40985 15.9376 10.3863 19.0729 9.45405" stroke="#40959D" stroke-width="2.03368"/>
<defs>
<linearGradient id="paint0_linear_569_3235" x1="11.2347" y1="3.32861" x2="11.2347" y2="19.0412" gradientUnits="userSpaceOnUse">
<stop stop-color="#40959D"/>
<stop offset="1" stop-color="#163437"/>
</linearGradient>
<linearGradient id="paint1_linear_569_3235" x1="11.0158" y1="0" x2="11.0158" y2="22.3704" gradientUnits="userSpaceOnUse">
<stop stop-color="#40959D"/>
<stop offset="1" stop-color="#163437"/>
</linearGradient>
</defs>
</svg>
