<svg width="25" height="19" viewBox="0 0 25 19" fill="none" xmlns="http://www.w3.org/2000/svg">
<path d="M21.1404 1.56531C21.1336 1.55222 21.122 1.54195 21.1081 1.53636C19.4914 0.812733 17.7854 0.296731 16.0327 0.00126567C16.0168 -0.00162244 16.0004 0.000461084 15.9857 0.00721992C15.9711 0.0139788 15.959 0.0250688 15.9512 0.0389129C15.7189 0.450255 15.508 0.872772 15.3193 1.30485C13.43 1.02505 11.5082 1.02505 9.61892 1.30485C9.42902 0.871675 9.21475 0.449053 8.97711 0.0389129C8.96896 0.0253696 8.95681 0.0145351 8.94227 0.00782009C8.92772 0.00110516 8.91142 -0.00117884 8.89552 0.00126567C7.14264 0.296111 5.43651 0.812152 3.8201 1.5364C3.80625 1.54212 3.79457 1.5519 3.78667 1.56436C0.554149 6.2739 -0.331363 10.8676 0.10304 15.4045C0.104262 15.4157 0.107763 15.4264 0.113336 15.4362C0.118909 15.4459 0.12644 15.4545 0.13548 15.4614C2.01775 16.821 4.12309 17.8589 6.36167 18.5306C6.37743 18.5353 6.39427 18.5351 6.40991 18.53C6.42554 18.525 6.43924 18.5155 6.44915 18.5027C6.92995 17.8644 7.35597 17.1886 7.72289 16.482C7.72793 16.4723 7.7308 16.4617 7.73133 16.4509C7.73185 16.44 7.73001 16.4291 7.72593 16.4191C7.72185 16.409 7.71562 16.3998 7.70764 16.3922C7.69967 16.3846 7.69013 16.3787 7.67967 16.375C7.00786 16.1242 6.35748 15.8219 5.73461 15.4709C5.7233 15.4645 5.7138 15.4553 5.70695 15.4443C5.7001 15.4335 5.69611 15.4211 5.69533 15.4083C5.69456 15.3955 5.69701 15.3827 5.7025 15.3711C5.70798 15.3594 5.71632 15.3493 5.72678 15.3415C5.85747 15.246 5.98825 15.1467 6.11305 15.0463C6.12413 15.0375 6.13755 15.0316 6.15178 15.0298C6.16602 15.0279 6.1805 15.03 6.19361 15.0357C10.2743 16.8525 14.6921 16.8525 18.7244 15.0357C18.7376 15.0297 18.7522 15.0273 18.7666 15.029C18.7811 15.0307 18.7947 15.0363 18.806 15.0454C18.9308 15.1457 19.0617 15.246 19.1933 15.3415C19.2038 15.3492 19.2122 15.3593 19.2178 15.3709C19.2233 15.3826 19.2258 15.3953 19.2252 15.408C19.2245 15.4209 19.2206 15.4332 19.2139 15.4442C19.2071 15.4552 19.1976 15.4643 19.1865 15.4709C18.5649 15.8249 17.914 16.127 17.2404 16.374C17.2299 16.3779 17.2204 16.3839 17.2126 16.3917C17.2046 16.3993 17.1984 16.4086 17.1945 16.4187C17.1904 16.429 17.1887 16.4399 17.1893 16.4507C17.1899 16.4617 17.1929 16.4723 17.198 16.482C17.5711 17.1847 17.9964 17.8597 18.4707 18.5016C18.4804 18.5147 18.4941 18.5246 18.5097 18.5297C18.5254 18.5349 18.5424 18.5352 18.5582 18.5305C20.8009 17.861 22.9098 16.8231 24.7945 15.4614C24.8036 15.4548 24.8113 15.4464 24.8169 15.4368C24.8225 15.4272 24.8259 15.4165 24.8269 15.4054C25.3469 10.1604 23.9563 5.60428 21.1404 1.56531ZM8.3323 12.642C7.10372 12.642 6.09142 11.5421 6.09142 10.1913C6.09142 8.84045 7.08408 7.74045 8.3323 7.74045C9.59025 7.74045 10.5928 8.85001 10.5731 10.1912C10.5731 11.5421 9.58042 12.642 8.3323 12.642ZM16.6174 12.642C15.389 12.642 14.3766 11.5421 14.3766 10.1913C14.3766 8.84045 15.3693 7.74045 16.6174 7.74045C17.8756 7.74045 18.8779 8.85001 18.8584 10.1912C18.8584 11.5421 17.8756 12.642 16.6174 12.642Z" fill="url(#paint0_linear_569_3229)"/>
<defs>
<linearGradient id="paint0_linear_569_3229" x1="12.4671" y1="0" x2="12.4671" y2="18.534" gradientUnits="userSpaceOnUse">
<stop stop-color="#40959D"/>
<stop offset="1" stop-color="#163437"/>
</linearGradient>
</defs>
</svg>
