<svg width="21" height="24" viewBox="0 0 21 24" fill="none" xmlns="http://www.w3.org/2000/svg">
<path d="M5.37765 0.379733C6.18144 0.672608 6.94611 1.07746 7.65213 1.58397C8.64924 1.30986 9.67452 1.17215 10.7037 1.17411C11.7665 1.17411 12.7919 1.31687 13.7531 1.58282C14.4588 1.0768 15.2231 0.672339 16.0265 0.379733C16.7725 0.106881 17.8354 -0.335208 18.4669 0.416574C18.895 0.927741 19.0021 1.78429 19.078 2.43821C19.1637 3.16812 19.184 4.11908 18.9592 5.06312C19.8187 6.25699 20.3368 7.68112 20.3368 9.23304C20.3368 11.5839 19.153 13.6252 17.4008 15.0389C16.5576 15.7107 15.6223 16.2374 14.6286 16.6001C14.8577 17.1642 14.9851 17.7882 14.9851 18.4432V21.8971C14.9851 22.2024 14.8723 22.4952 14.6716 22.7111C14.4708 22.927 14.1986 23.0483 13.9147 23.0483H7.49265C7.20878 23.0483 6.93653 22.927 6.7358 22.7111C6.53508 22.4952 6.42231 22.2024 6.42231 21.8971V20.7562C5.40013 20.8909 4.54278 20.7711 3.81388 20.4384C3.0518 20.0907 2.5209 19.5519 2.12167 19.0361C1.74276 18.548 1.32961 17.4474 0.73236 17.2333C0.598969 17.1855 0.475633 17.1099 0.369394 17.0109C0.263154 16.9118 0.176092 16.7912 0.113177 16.656C-0.0138837 16.3829 -0.0348708 16.0667 0.054833 15.7769C0.144537 15.4871 0.337583 15.2476 0.591505 15.1109C0.845426 14.9742 1.13942 14.9516 1.40882 15.0481C2.12167 15.3037 2.5862 15.8563 2.90409 16.3007C3.41785 17.0145 3.83529 17.947 4.64875 18.3189C4.98377 18.472 5.47505 18.5722 6.24356 18.4594L6.42231 18.4202C6.42435 17.7937 6.54565 17.1742 6.77873 16.6001C5.78501 16.2374 4.84977 15.7107 4.00654 15.0389C2.25439 13.6252 1.07059 11.5851 1.07059 9.23304C1.07059 7.68342 1.58756 6.26045 2.44491 5.06773C2.22014 4.12368 2.2394 3.17042 2.32503 2.43937L2.33038 2.39562C2.40852 1.72557 2.4995 0.936951 2.9362 0.416574C3.5677 -0.335208 4.63162 0.108033 5.37658 0.380885L5.37765 0.379733Z" fill="url(#paint0_linear_569_3232)"/>
<defs>
<linearGradient id="paint0_linear_569_3232" x1="10.1684" y1="0" x2="10.1684" y2="23.0483" gradientUnits="userSpaceOnUse">
<stop stop-color="#40959D"/>
<stop offset="1" stop-color="#163437"/>
</linearGradient>
</defs>
</svg>
