<svg width="24" height="19" viewBox="0 0 24 19" fill="none" xmlns="http://www.w3.org/2000/svg">
<path d="M20.9833 4.7304C20.9982 4.93799 20.9982 5.14563 20.9982 5.35323C20.9982 11.6851 16.1753 18.981 7.3605 18.981C4.64481 18.981 2.12209 18.1951 0 16.8308C0.385846 16.8752 0.756802 16.8902 1.15749 16.8902C3.39825 16.8902 5.46099 16.1338 7.10821 14.8438C5.00097 14.7992 3.23504 13.4202 2.6266 11.5221C2.92342 11.5665 3.2202 11.5962 3.53186 11.5962C3.9622 11.5962 4.39258 11.5368 4.79322 11.4331C2.59696 10.9882 0.949701 9.06045 0.949701 6.73232V6.67302C1.58779 7.02891 2.32983 7.25135 3.11628 7.28097C1.82522 6.42088 0.979392 4.95284 0.979392 3.29199C0.979392 2.40226 1.21678 1.58667 1.63232 0.874883C3.99184 3.78134 7.53855 5.67942 11.5155 5.88706C11.4414 5.53116 11.3968 5.16048 11.3968 4.78974C11.3968 2.15017 13.5337 0 16.19 0C17.5701 0 18.8167 0.578325 19.6922 1.51254C20.7755 1.30496 21.8143 0.904552 22.7344 0.355896C22.3782 1.46809 21.6213 2.40231 20.6271 2.99543C21.5918 2.89168 22.5266 2.62469 23.3873 2.25401C22.7344 3.20302 21.9182 4.04823 20.9833 4.7304Z" fill="url(#paint0_linear_569_3226)"/>
<defs>
<linearGradient id="paint0_linear_569_3226" x1="11.6936" y1="0" x2="11.6936" y2="18.981" gradientUnits="userSpaceOnUse">
<stop stop-color="#40959D"/>
<stop offset="1" stop-color="#163437"/>
</linearGradient>
</defs>
</svg>
