<svg width="716" height="153" viewBox="0 0 716 153" fill="none" xmlns="http://www.w3.org/2000/svg">
<path d="M255.668 30.2036L280.762 101.565L305.595 30.2036H324.546L289.388 123H272.005L236.716 30.2036H255.668ZM363.291 124.307C357.802 124.307 352.835 123.392 348.392 121.562C343.948 119.645 340.158 117.075 337.021 113.851C333.884 110.54 331.444 106.793 329.702 102.611C328.046 98.3414 327.218 93.8541 327.218 89.1489C327.218 82.614 328.656 76.6454 331.532 71.2432C334.494 65.8409 338.676 61.5279 344.079 58.3039C349.568 54.9929 356.016 53.3374 363.422 53.3374C370.916 53.3374 377.32 54.9929 382.635 58.3039C387.95 61.5279 392.002 65.8409 394.79 71.2432C397.665 76.5583 399.103 82.309 399.103 88.4954C399.103 89.541 399.059 90.6302 398.972 91.7629C398.885 92.8085 398.798 93.6798 398.711 94.3769H345.778C346.126 97.8622 347.128 100.912 348.784 103.526C350.526 106.14 352.705 108.144 355.319 109.538C358.02 110.845 360.895 111.498 363.945 111.498C367.43 111.498 370.698 110.671 373.747 109.015C376.884 107.273 379.019 105.007 380.152 102.219L395.182 106.401C393.526 109.887 391.13 112.98 387.994 115.681C384.944 118.382 381.328 120.517 377.146 122.085C372.963 123.566 368.345 124.307 363.291 124.307ZM345.386 83.2675H381.197C380.849 79.7822 379.847 76.7761 378.191 74.2492C376.623 71.6353 374.532 69.6312 371.918 68.2371C369.304 66.7558 366.385 66.0152 363.161 66.0152C360.024 66.0152 357.149 66.7558 354.535 68.2371C352.008 69.6312 349.917 71.6353 348.261 74.2492C346.693 76.7761 345.734 79.7822 345.386 83.2675ZM458.392 69.6748C453.077 69.6748 448.329 70.7204 444.146 72.8115C439.964 74.8156 436.958 77.7345 435.128 81.5684V123H417.614V54.5137H433.69V69.152C436.13 64.4468 439.223 60.7437 442.97 58.0425C446.717 55.3414 450.681 53.8602 454.863 53.5988C455.822 53.5988 456.563 53.5988 457.085 53.5988C457.608 53.5988 458.044 53.6423 458.392 53.7295V69.6748ZM476 123V54.5137H493.514V123H476ZM476 44.9726V27.5897H493.514V44.9726H476ZM558.194 119.471C556.713 120.081 554.927 120.778 552.836 121.562C550.745 122.347 548.479 122.956 546.039 123.392C543.687 123.915 541.291 124.176 538.851 124.176C535.627 124.176 532.664 123.61 529.963 122.477C527.262 121.344 525.084 119.558 523.428 117.119C521.86 114.592 521.076 111.324 521.076 107.316V67.9757H512.058V54.5137H521.076V32.2948H538.59V54.5137H552.966V67.9757H538.59V101.435C538.677 103.787 539.33 105.486 540.55 106.532C541.77 107.578 543.295 108.1 545.124 108.1C546.954 108.1 548.74 107.795 550.483 107.185C552.226 106.575 553.62 106.053 554.666 105.617L558.194 119.471ZM570.453 102.742C570.453 98.2979 571.672 94.4205 574.112 91.1094C576.639 87.7112 580.124 85.0973 584.568 83.2675C589.012 81.4377 594.109 80.5228 599.86 80.5228C602.735 80.5228 605.654 80.7406 608.617 81.1763C611.579 81.6119 614.15 82.309 616.328 83.2675V79.6079C616.328 75.2513 615.021 71.8967 612.407 69.5441C609.88 67.1915 606.09 66.0152 601.036 66.0152C597.289 66.0152 593.717 66.6687 590.319 67.9757C586.921 69.2827 583.348 71.1996 579.601 73.7264L573.981 62.2249C578.512 59.2624 583.13 57.0405 587.836 55.5593C592.628 54.078 597.638 53.3374 602.866 53.3374C612.625 53.3374 620.205 55.7771 625.608 60.6565C631.097 65.536 633.842 72.5066 633.842 81.5684V103.395C633.842 105.225 634.147 106.532 634.756 107.316C635.454 108.1 636.543 108.58 638.024 108.754V123C636.456 123.261 635.018 123.479 633.711 123.653C632.491 123.828 631.445 123.915 630.574 123.915C627.089 123.915 624.431 123.131 622.601 121.562C620.859 119.994 619.77 118.077 619.334 115.812L618.942 112.283C615.979 116.117 612.276 119.079 607.832 121.17C603.389 123.261 598.858 124.307 594.24 124.307C589.709 124.307 585.614 123.392 581.954 121.562C578.382 119.645 575.55 117.075 573.459 113.851C571.455 110.54 570.453 106.837 570.453 102.742ZM613.06 106.271C614.019 105.225 614.803 104.179 615.413 103.134C616.023 102.088 616.328 101.13 616.328 100.258V93.3313C614.237 92.46 611.971 91.8065 609.532 91.3708C607.092 90.848 604.783 90.5866 602.605 90.5866C598.074 90.5866 594.327 91.5886 591.364 93.5927C588.489 95.5096 587.051 98.08 587.051 101.304C587.051 103.047 587.531 104.702 588.489 106.271C589.447 107.839 590.842 109.102 592.671 110.061C594.501 111.019 596.679 111.498 599.206 111.498C601.82 111.498 604.391 111.019 606.918 110.061C609.444 109.015 611.492 107.752 613.06 106.271ZM683.274 124.307C677.437 124.307 671.86 123.349 666.545 121.432C661.23 119.515 656.655 116.683 652.822 112.936L659.095 101.565C663.19 104.876 667.198 107.316 671.119 108.884C675.128 110.453 678.961 111.237 682.621 111.237C686.019 111.237 688.72 110.627 690.724 109.407C692.815 108.187 693.861 106.358 693.861 103.918C693.861 102.262 693.295 100.999 692.162 100.128C691.029 99.1692 689.374 98.3414 687.195 97.6444C685.104 96.9473 682.534 96.1631 679.484 95.2918C674.43 93.6363 670.205 92.0243 666.806 90.4559C663.408 88.8875 660.838 86.927 659.095 84.5745C657.44 82.1347 656.612 79.0415 656.612 75.2948C656.612 70.7639 657.745 66.8865 660.01 63.6626C662.363 60.3516 665.587 57.7811 669.682 55.9514C673.864 54.1216 678.744 53.2067 684.32 53.2067C689.199 53.2067 693.818 53.9909 698.174 55.5593C702.531 57.0405 706.495 59.4802 710.068 62.8784L703.01 73.9878C699.525 71.2867 696.214 69.3262 693.077 68.1064C689.94 66.7994 686.76 66.1459 683.536 66.1459C681.706 66.1459 679.963 66.3637 678.308 66.7994C676.739 67.2351 675.432 67.9757 674.387 69.0213C673.428 69.9797 672.949 71.3739 672.949 73.2036C672.949 74.8592 673.385 76.1662 674.256 77.1246C675.215 77.9959 676.609 78.7801 678.439 79.4772C680.355 80.1743 682.665 80.9585 685.366 81.8298C690.855 83.3982 695.473 85.0101 699.22 86.6656C703.054 88.3212 705.929 90.3688 707.846 92.8085C709.763 95.1611 710.721 98.4286 710.721 102.611C710.721 109.407 708.238 114.722 703.271 118.556C698.305 122.39 691.639 124.307 683.274 124.307Z" fill="white"/>
<path d="M58.3213 55.8856L101.315 31.3455L144.309 55.8856V104.786L101.315 129.326L58.3213 104.786V55.8856ZM145.227 104.262L145.224 104.264C145.225 104.263 145.226 104.263 145.227 104.262ZM102.217 129.841L102.213 129.839C102.214 129.839 102.216 129.84 102.217 129.841Z" stroke="#40959D" stroke-width="18.2056"/>
<path d="M49.5242 123.51C52.642 126.239 49.5057 131.226 45.695 129.598L5.15812 112.277C2.02969 110.941 0.000274658 107.867 0.000274658 104.465L0.000274658 56.1563C0.000274658 52.7556 2.02814 49.6826 5.1548 48.3451L45.6156 31.0371C49.4223 29.4087 52.5613 34.3851 49.452 37.1192L35.4147 49.4625C34.6285 50.1538 34.178 51.15 34.178 52.1969L34.178 108.422C34.178 109.472 34.6309 110.47 35.4206 111.161L49.5242 123.51Z" fill="white"/>
<path d="M151.956 123.51C148.838 126.239 151.975 131.226 155.785 129.598L196.322 112.277C199.451 110.941 201.48 107.867 201.48 104.465V56.1563C201.48 52.7556 199.452 49.6826 196.326 48.3451L155.865 31.0371C152.058 29.4087 148.919 34.3851 152.028 37.1192L166.066 49.4625C166.852 50.1538 167.303 51.15 167.303 52.1969V108.422C167.303 109.472 166.85 110.47 166.06 111.161L151.956 123.51Z" fill="white"/>
</svg>
