<svg width="419" height="154" viewBox="0 0 419 154" fill="none" xmlns="http://www.w3.org/2000/svg">
<path d="M43.4467 43.709C43.4467 43.709 41.3782 51.3254 41.9467 56.209C42.8764 64.1965 46.3352 69.6213 50.9467 76.209C54.4467 81.209 55.7279 83.9551 54.9467 89.209C54.0851 95.0032 51.2532 98.7281 45.9467 101.209C41.1708 103.442 37.4467 103.209 32.4467 102.709C27.4467 102.209 20.5128 103.46 14.4467 101.209C10.1768 99.6249 7.38337 98.4604 4.94666 95.209C1.26962 90.3026 1.57919 87.1347 2.94665 81.2091C4.44665 74.7091 6.93843 69.3662 7.94665 62.7091C8.99927 55.7589 8.44666 52.2091 8.44666 45.209C8.44666 38.048 8.56341 33.2641 11.4467 26.7091C13.8235 21.3055 15.8551 18.4193 20.4467 14.709C24.1592 11.7091 26.3997 11.348 30.4467 9.70905C43.7585 4.31806 60.4467 4.84917 66.9467 5.20905C82.2199 6.05465 94.4111 3.61895 104.947 14.709C114.447 24.7091 115.947 33.2091 115.947 33.2091C115.947 33.2091 123.947 37.2092 124.447 41.2091M124.447 41.2091C124.947 45.209 123.947 37.2092 124.447 41.2091ZM124.447 41.2091C124.947 45.209 124.447 47.2092 122.447 49.7091C121.356 51.0729 118.447 53.2091 118.447 53.2091C118.447 53.2091 119.467 58.6507 119.447 63.2091C119.425 68.1873 119.362 70.8158 118.447 75.709C117.39 81.3571 116.906 84.4813 116.447 90.209C116.041 95.2696 115.947 98.1322 115.947 103.209C115.947 108.872 115.467 112.067 115.947 117.709C116.433 123.435 117.447 136.209 117.447 136.209C117.447 136.209 113.196 137.209 109.947 137.209C105.947 137.209 101.947 136.209 101.947 136.209C101.947 136.209 102.601 127.141 102.947 122.209C103.22 118.313 103.278 115.1 102.947 111.209C102.576 106.859 102.157 104.904 100.947 100.709C99.66 96.2497 99.3603 94.1326 96.9467 89.7091C94.533 85.2856 93.3063 83.2363 88.9467 80.7091C86.8098 79.4704 82.5088 78.2091 80.9467 78.2091C79.3846 78.2091 76.0088 78.2091 74.4467 78.2091C72.8846 78.2091 69.9467 78.2091 67.9467 76.7091" stroke="#40959D" stroke-width="3"/>
<path d="M38.4465 104.209C36.4939 109.872 35.4916 112.922 33.9465 118.709C32.3067 124.851 31.3662 128.366 30.9465 134.709C30.5075 141.345 30.2326 145.17 31.4465 151.709" stroke="#40959D" stroke-width="3"/>
<path d="M111.447 138.209C111.447 145.709 110.947 147.709 109.947 152.709" stroke="#40959D" stroke-width="3"/>
<path d="M174.557 2.23185L149.442 36.5552C148.475 37.8765 149.419 39.7363 151.056 39.7363H200.703C202.33 39.7363 203.276 37.897 202.33 36.5733L177.798 2.24996C177.006 1.14153 175.362 1.13234 174.557 2.23185Z" fill="#244549" stroke="#46B1BC" stroke-width="2"/>
<path d="M191.067 19.8681L206.805 2.52686C207.474 1.78954 208.584 1.65675 209.408 2.21536L236.371 20.489" stroke="#46B1BC" stroke-width="2"/>
<path d="M142.381 78.7143V42.3572C142.381 41.2526 143.276 40.3572 144.381 40.3572H271.619C274.933 40.3572 277.619 43.0435 277.619 46.3572V78.7143C277.619 79.8189 276.723 80.7143 275.619 80.7143H144.381C143.276 80.7143 142.381 79.8189 142.381 78.7143Z" fill="#244549" stroke="#46B1BC" stroke-width="2"/>
<path d="M246.096 8.04882L225.127 37.189C224.175 38.512 225.121 40.3571 226.751 40.3571H265.287C266.844 40.3571 267.804 38.6575 267 37.3245L249.432 8.18436C248.691 6.95499 246.934 6.88362 246.096 8.04882Z" fill="#244549" stroke="#46B1BC" stroke-width="2"/>
<path d="M174.514 95.6154C174.514 100.52 172.84 104.429 169.911 107.118C166.972 109.817 162.67 111.379 157.257 111.379C151.845 111.379 147.542 109.817 144.604 107.118C141.674 104.429 140 100.52 140 95.6154C140 90.7109 141.674 86.8021 144.604 84.1125C147.542 81.4142 151.845 79.8517 157.257 79.8517C162.67 79.8517 166.972 81.4142 169.911 84.1125C172.84 86.8021 174.514 90.7109 174.514 95.6154Z" fill="#244549" stroke="#46B1BC" stroke-width="2"/>
<path d="M280 96.2364C280 101.141 278.325 105.05 275.396 107.739C272.458 110.438 268.155 112 262.743 112C257.33 112 253.028 110.438 250.089 107.739C247.16 105.05 245.486 101.141 245.486 96.2364C245.486 91.3319 247.16 87.4231 250.089 84.7335C253.028 82.0351 257.33 80.4727 262.743 80.4727C268.155 80.4727 272.458 82.0351 275.396 84.7335C278.325 87.4231 280 91.3319 280 96.2364Z" fill="#244549" stroke="#46B1BC" stroke-width="2"/>
<path d="M375.765 44.709C375.765 44.709 377.823 52.3254 377.258 57.209C376.333 65.1965 372.891 70.6213 368.304 77.209C364.822 82.209 363.547 84.9551 364.324 90.209C365.181 96.0032 367.999 99.7281 373.278 102.209C378.03 104.442 381.735 104.209 386.709 103.709C391.683 103.209 398.582 104.46 404.617 102.209C408.865 100.625 411.644 99.4604 414.068 96.209C417.727 91.3026 417.419 88.1347 416.058 82.2091C414.566 75.7091 412.087 70.3662 411.084 63.7091C410.037 56.7589 410.586 53.2091 410.586 46.209C410.586 39.048 410.47 34.2641 407.602 27.7091C405.237 22.3055 403.216 19.4193 398.648 15.709C394.954 12.7091 392.725 12.348 388.699 10.709C375.455 5.31806 358.852 5.84917 352.385 6.20905C337.19 7.05465 325.061 4.61895 314.58 15.709C305.128 25.7091 303.636 34.2091 303.636 34.2091C303.636 34.2091 295.677 38.2092 295.179 42.2091M295.179 42.2091C294.682 46.209 295.677 38.2092 295.179 42.2091ZM295.179 42.2091C294.682 46.209 295.179 48.2092 297.169 50.7091C298.255 52.0729 301.149 54.2091 301.149 54.2091C301.149 54.2091 300.134 59.6507 300.154 64.2091C300.176 69.1873 300.238 71.8158 301.149 76.709C302.2 82.3571 302.681 85.4813 303.139 91.209C303.543 96.2696 303.636 99.1322 303.636 104.209C303.636 109.872 304.113 113.067 303.636 118.709C303.152 124.435 302.144 137.209 302.144 137.209C302.144 137.209 306.372 138.209 309.605 138.209C313.585 138.209 317.564 137.209 317.564 137.209C317.564 137.209 316.913 128.141 316.569 123.209C316.298 119.313 316.24 116.1 316.569 112.209C316.938 107.859 317.355 105.904 318.559 101.709C319.839 97.2497 320.137 95.1326 322.539 90.7091C324.94 86.2856 326.161 84.2363 330.498 81.7091C332.624 80.4704 336.903 79.2091 338.457 79.2091C340.011 79.2091 343.37 79.2091 344.924 79.2091C346.478 79.2091 349.401 79.2091 351.391 77.7091" stroke="#40959D" stroke-width="3"/>
<path d="M380.74 105.209C382.682 110.872 383.68 113.922 385.217 119.709C386.848 125.851 387.784 129.366 388.201 135.709C388.638 142.345 388.912 146.17 387.704 152.709" stroke="#40959D" stroke-width="3"/>
<path d="M308.113 139.209C308.113 146.709 308.61 148.709 309.605 153.709" stroke="#40959D" stroke-width="3"/>
</svg>
