<svg width="420" height="199" viewBox="0 0 420 199" fill="none" xmlns="http://www.w3.org/2000/svg">
<path d="M174.557 48.2319L149.442 82.5552C148.475 83.8765 149.419 85.7363 151.056 85.7363H200.703C202.33 85.7363 203.276 83.897 202.33 82.5733L177.799 48.25C177.006 47.1415 175.362 47.1323 174.557 48.2319Z" stroke="#46B1BC" stroke-width="6"/>
<path d="M191.067 65.8681L206.805 48.5269C207.474 47.7895 208.584 47.6568 209.408 48.2154L236.371 66.489" stroke="#46B1BC" stroke-width="6"/>
<path d="M142.381 124.714V88.3572C142.381 87.2526 143.276 86.3572 144.381 86.3572H271.619C274.933 86.3572 277.619 89.0435 277.619 92.3572V124.714C277.619 125.819 276.723 126.714 275.619 126.714H144.381C143.276 126.714 142.381 125.819 142.381 124.714Z" stroke="#46B1BC" stroke-width="6"/>
<path d="M246.096 54.0488L225.127 83.189C224.175 84.512 225.121 86.3571 226.751 86.3571H265.287C266.844 86.3571 267.804 84.6575 267 83.3245L249.432 54.1844C248.691 52.955 246.934 52.8836 246.096 54.0488Z" stroke="#46B1BC" stroke-width="6"/>
<path d="M172.514 141.615C172.514 146.042 171.018 149.386 168.558 151.645C166.07 153.93 162.291 155.379 157.257 155.379C152.223 155.379 148.445 153.93 145.956 151.645C143.496 149.386 142 146.042 142 141.615C142 137.189 143.496 133.844 145.956 131.586C148.445 129.301 152.223 127.852 157.257 127.852C162.291 127.852 166.07 129.301 168.558 131.586C171.018 133.844 172.514 137.189 172.514 141.615Z" stroke="#46B1BC" stroke-width="6"/>
<path d="M278 142.236C278 146.663 276.504 150.007 274.044 152.266C271.555 154.551 267.777 156 262.743 156C257.709 156 253.93 154.551 251.442 152.266C248.982 150.007 247.486 146.663 247.486 142.236C247.486 137.81 248.982 134.465 251.442 132.207C253.93 129.922 257.709 128.473 262.743 128.473C267.777 128.473 271.555 129.922 274.044 132.207C276.504 134.465 278 137.81 278 142.236Z" stroke="#46B1BC" stroke-width="6"/>
<path d="M43.4467 89.709C43.4467 89.709 41.3782 97.3254 41.9467 102.209C42.8764 110.197 46.3352 115.621 50.9467 122.209C54.4467 127.209 55.7279 129.955 54.9467 135.209C54.0851 141.003 51.2532 144.728 45.9467 147.209C41.1708 149.442 37.4467 149.209 32.4467 148.709C27.4467 148.209 20.5128 149.46 14.4467 147.209C10.1768 145.625 7.38337 144.46 4.94666 141.209C1.26962 136.303 1.57919 133.135 2.94665 127.209C4.44665 120.709 6.93843 115.366 7.94665 108.709C8.99927 101.759 8.44666 98.2091 8.44666 91.209C8.44666 84.048 8.56341 79.2641 11.4467 72.7091C13.8235 67.3055 15.8551 64.4193 20.4467 60.709C24.1592 57.7091 26.3997 57.348 30.4467 55.709C43.7585 50.3181 60.4467 50.8492 66.9467 51.209C82.2199 52.0546 94.4111 49.619 104.947 60.709C114.447 70.7091 115.947 79.2091 115.947 79.2091C115.947 79.2091 123.947 83.2092 124.447 87.2091M124.447 87.2091C124.947 91.209 123.947 83.2092 124.447 87.2091ZM124.447 87.2091C124.947 91.209 124.447 93.2092 122.447 95.7091C121.356 97.0729 118.447 99.2091 118.447 99.2091C118.447 99.2091 119.467 104.651 119.447 109.209C119.425 114.187 119.362 116.816 118.447 121.709C117.39 127.357 116.906 130.481 116.447 136.209C116.041 141.27 115.947 144.132 115.947 149.209C115.947 154.872 115.467 158.067 115.947 163.709C116.433 169.435 117.447 182.209 117.447 182.209C117.447 182.209 113.196 183.209 109.947 183.209C105.947 183.209 101.947 182.209 101.947 182.209C101.947 182.209 102.601 173.141 102.947 168.209C103.22 164.313 103.278 161.1 102.947 157.209C102.576 152.859 102.157 150.904 100.947 146.709C99.66 142.25 99.3603 140.133 96.9467 135.709C94.533 131.286 93.3063 129.236 88.9467 126.709C86.8098 125.47 82.5088 124.209 80.9467 124.209C79.3846 124.209 76.0088 124.209 74.4467 124.209C72.8846 124.209 69.9467 124.209 67.9467 122.709" stroke="#40959D" stroke-width="3"/>
<path d="M38.4467 150.209C36.494 155.872 35.4917 158.922 33.9467 164.709C32.3069 170.851 31.3663 174.366 30.9467 180.709C30.5076 187.345 30.2327 191.17 31.4467 197.709" stroke="#40959D" stroke-width="3"/>
<path d="M111.447 184.209C111.447 191.709 110.947 193.709 109.947 198.709" stroke="#40959D" stroke-width="3"/>
<path d="M376.765 40.709C376.765 40.709 378.823 48.3254 378.258 53.209C377.333 61.1965 373.891 66.6213 369.304 73.209C365.822 78.209 364.547 80.9551 365.324 86.209C366.181 92.0032 368.999 95.7281 374.278 98.209C379.03 100.442 382.735 100.209 387.709 99.709C392.683 99.209 399.582 100.46 405.617 98.209C409.865 96.6249 412.644 95.4604 415.068 92.209C418.727 87.3026 418.419 84.1347 417.058 78.2091C415.566 71.7091 413.087 66.3662 412.084 59.7091C411.037 52.7589 411.586 49.2091 411.586 42.209C411.586 35.048 411.47 30.2641 408.602 23.7091C406.237 18.3055 404.216 15.4193 399.648 11.709C395.954 8.70908 393.725 8.34795 389.699 6.70905C376.455 1.31806 359.852 1.84917 353.385 2.20905C338.19 3.05465 326.061 0.618952 315.58 11.709C306.128 21.7091 304.636 30.2091 304.636 30.2091C304.636 30.2091 296.677 34.2092 296.179 38.2091M296.179 38.2091C295.682 42.209 296.677 34.2092 296.179 38.2091ZM296.179 38.2091C295.682 42.209 296.179 44.2092 298.169 46.7091C299.255 48.0729 302.149 50.2091 302.149 50.2091C302.149 50.2091 301.134 55.6507 301.154 60.2091C301.176 65.1873 301.238 67.8158 302.149 72.709C303.2 78.3571 303.681 81.4813 304.139 87.209C304.543 92.2696 304.636 95.1322 304.636 100.209C304.636 105.872 305.113 109.067 304.636 114.709C304.152 120.435 303.144 133.209 303.144 133.209C303.144 133.209 307.372 134.209 310.605 134.209C314.585 134.209 318.564 133.209 318.564 133.209C318.564 133.209 317.913 124.141 317.569 119.209C317.298 115.313 317.24 112.1 317.569 108.209C317.938 103.859 318.355 101.904 319.559 97.7091C320.839 93.2497 321.137 91.1326 323.539 86.7091C325.94 82.2856 327.161 80.2363 331.498 77.7091C333.624 76.4704 337.903 75.2091 339.457 75.2091C341.011 75.2091 344.37 75.2091 345.924 75.2091C347.478 75.2091 350.401 75.2091 352.391 73.7091" stroke="#40959D" stroke-width="3"/>
<path d="M381.74 101.209C383.682 106.872 384.68 109.922 386.217 115.709C387.848 121.851 388.784 125.366 389.201 131.709C389.638 138.345 389.912 142.17 388.704 148.709" stroke="#40959D" stroke-width="3"/>
<path d="M309.113 135.209C309.113 142.709 309.61 144.709 310.605 149.709" stroke="#40959D" stroke-width="3"/>
</svg>
