<svg width="123" height="72" viewBox="0 0 123 72" fill="none" xmlns="http://www.w3.org/2000/svg">
<path d="M61.3018 6.02548L61.3035 6.02644C61.3029 6.02612 61.3023 6.0258 61.3018 6.02548L61.8482 5.06814L61.3018 6.02548ZM61.8482 6.33737L87.8799 21.1958V50.8039L61.8482 65.6624L35.8166 50.8039V21.1958L61.8482 6.33737ZM62.3947 65.9743L62.3922 65.9728C62.393 65.9733 62.3938 65.9738 62.3947 65.9743Z" stroke="#40959D" stroke-width="11.0231"/>
<path d="M30.4901 62.1402C32.3778 63.793 30.4789 66.812 28.1716 65.8262L3.62742 55.3392C1.73323 54.5299 0.504471 52.6687 0.504471 50.6088L0.504471 21.3593C0.504471 19.3002 1.7323 17.4395 3.62542 16.6297L28.1235 6.15015C30.4284 5.1642 32.329 8.1773 30.4464 9.8327L21.9471 17.3063C21.4711 17.7249 21.1983 18.3281 21.1983 18.9619L21.1983 53.0049C21.1983 53.6404 21.4725 54.245 21.9506 54.6636L30.4901 62.1402Z" fill="#EEEEEE"/>
<path d="M92.5099 62.1402C90.6222 63.793 92.5211 66.812 94.8284 65.8262L119.373 55.3392C121.267 54.5299 122.496 52.6687 122.496 50.6088V21.3593C122.496 19.3002 121.268 17.4395 119.375 16.6297L94.8765 6.15015C92.5716 5.1642 90.671 8.1773 92.5536 9.8327L101.053 17.3063C101.529 17.7249 101.802 18.3281 101.802 18.9619V53.0049C101.802 53.6404 101.528 54.245 101.049 54.6636L92.5099 62.1402Z" fill="#EEEEEE"/>
</svg>
